<?xml version="1.0" standalone="no"?><!DOCTYPE svg PUBLIC "-//W3C//DTD SVG 1.1//EN" "http://www.w3.org/Graphics/SVG/1.1/DTD/svg11.dtd"><svg t="1503303608237" class="icon" style="" viewBox="0 0 1060 1024" version="1.1" xmlns="http://www.w3.org/2000/svg" p-id="2511" xmlns:xlink="http://www.w3.org/1999/xlink" width="16.5625" height="16"><defs><style type="text/css"></style></defs><path d="M0 564.776409C1.199939 837.444828 226.223733 1024 501.644952 1024 776.995587 1024 1022.665385 837.48012 1023.830032 564.811701l0-35.292314L0.352923 529.519387 0 564.776409zM796.86516 466.522607c42.280192 0 56.43241-42.809577 42.774285-71.890444l118.723345-351.546741c5.752647-17.152065-3.564524-35.68053-20.857758-41.397884-17.504988-5.717355-36.033453 3.564524-41.7861 20.716588l-118.158668 349.71154C733.903672 389.691239 740.29158 466.522607 796.86516 466.522607zM635.826331 360.292741c63.914381 0 63.914381-98.147925 0-98.147925S571.91195 360.292741 635.826331 360.292741zM635.826331 507.461691c63.914381 0 63.914381-98.112633 0-98.112633S571.91195 507.461691 635.826331 507.461691zM416.978691 503.367783c63.914381 0 63.914381-98.112633 0-98.112633C353.06431 405.255149 353.06431 503.367783 416.978691 503.367783zM516.079509 401.161241c63.914381 0 63.914381-98.112633 0-98.112633C452.165128 303.013315 452.165128 401.161241 516.079509 401.161241zM239.387766 507.461691c63.914381 0 63.914381-98.112633 0-98.112633S175.473386 507.461691 239.387766 507.461691zM1036.323511 67.190073c-17.469695-5.717355-35.99816 3.599816-41.7861 20.716588L872.955389 448.029434c-5.78794 17.187357 3.599816 35.68053 20.857758 41.362592 3.493939 1.164646 6.987878 1.729323 10.446525 1.729323 13.869879 0 26.716282-8.681909 31.339575-22.410619l121.617314-360.122773C1062.969208 91.435892 1053.616745 72.907428 1036.323511 67.190073z" p-id="2512" fill="#d4237a"></path></svg>