<?xml version="1.0" standalone="no"?><!DOCTYPE svg PUBLIC "-//W3C//DTD SVG 1.1//EN" "http://www.w3.org/Graphics/SVG/1.1/DTD/svg11.dtd"><svg t="1503305561541" class="icon" style="" viewBox="0 0 1024 1024" version="1.1" xmlns="http://www.w3.org/2000/svg" p-id="2368" xmlns:xlink="http://www.w3.org/1999/xlink" width="16" height="16"><defs><style type="text/css"></style></defs><path d="M1007.784987 384.000213h-369.450051l144.12776-143.530427A385.407358 385.407358 0 0 0 509.737817 128.00064C313.428811 128.00064 151.466414 274.091063 127.317121 463.018748c0 0-7.381321 48.981252-63.061228 48.981252a64.127893 64.127893 0 0 1-62.634562-78.07987C39.423934 188.245873 252.415579 0.000853 509.737817 0.000853a513.70581 513.70581 0 0 1 363.647394 149.973084L1023.998293 0.000853v383.99936h-16.213306zM150.613082 639.999787h235.050275l-144.12776 143.530427A385.151358 385.151358 0 0 0 514.260476 895.99936c196.309006 0 358.271403-146.090423 382.420696-335.018108 0 0 7.381321-48.981252 63.061228-48.981252a64.127893 64.127893 0 0 1 62.634563 78.07987C984.574359 835.754127 771.582714 1023.999147 514.260476 1023.999147a513.83381 513.83381 0 0 1-363.647394-149.930417L0 1023.999147v-383.99936h150.613082z" p-id="2369" fill="#1296db"></path></svg>